{
    "accessors": {
        "accessor_102": {
            "bufferView": "bufferView_191",
            "byteOffset": 192,
            "byteStride": 0,
            "componentType": 5123,
            "count": 30,
            "type": "SCALAR"
        },
        "accessor_104": {
            "bufferView": "bufferView_192",
            "byteOffset": 3072,
            "byteStride": 12,
            "componentType": 5126,
            "count": 30,
            "max": [
                0.1,
                0.15,
                0.00999999
            ],
            "min": [
                -0.1,
                -0.15,
                0
            ],
            "type": "VEC3"
        },
        "accessor_106": {
            "bufferView": "bufferView_192",
            "byteOffset": 3432,
            "byteStride": 12,
            "componentType": 5126,
            "count": 30,
            "max": [
                0.707107,
                0.707107,
                1
            ],
            "min": [
                -0.707107,
                -0.707107,
                0.707106
            ],
            "type": "VEC3"
        },
        "accessor_108": {
            "bufferView": "bufferView_192",
            "byteOffset": 3792,
            "byteStride": 8,
            "componentType": 5126,
            "count": 30,
            "max": [
                0.990612,
                0.603561
            ],
            "min": [
                0.795881,
                0.311464
            ],
            "type": "VEC2"
        },
        "accessor_129": {
            "bufferView": "bufferView_191",
            "byteOffset": 252,
            "byteStride": 0,
            "componentType": 5123,
            "count": 30,
            "type": "SCALAR"
        },
        "accessor_131": {
            "bufferView": "bufferView_192",
            "byteOffset": 4032,
            "byteStride": 12,
            "componentType": 5126,
            "count": 30,
            "max": [
                0.1,
                0.15,
                0.00999999
            ],
            "min": [
                -0.1,
                -0.15,
                0
            ],
            "type": "VEC3"
        },
        "accessor_133": {
            "bufferView": "bufferView_192",
            "byteOffset": 4392,
            "byteStride": 12,
            "componentType": 5126,
            "count": 30,
            "max": [
                0.707107,
                0.707107,
                1
            ],
            "min": [
                -0.707107,
                -0.707107,
                0.707106
            ],
            "type": "VEC3"
        },
        "accessor_135": {
            "bufferView": "bufferView_192",
            "byteOffset": 4752,
            "byteStride": 8,
            "componentType": 5126,
            "count": 30,
            "max": [
                0.990612,
                0.300489
            ],
            "min": [
                0.795881,
                0.00839227
            ],
            "type": "VEC2"
        },
        "accessor_156": {
            "bufferView": "bufferView_191",
            "byteOffset": 312,
            "byteStride": 0,
            "componentType": 5123,
            "count": 6,
            "type": "SCALAR"
        },
        "accessor_158": {
            "bufferView": "bufferView_192",
            "byteOffset": 4992,
            "byteStride": 12,
            "componentType": 5126,
            "count": 6,
            "max": [
                0.5,
                0.4,
                0
            ],
            "min": [
                -0.5,
                -0.4,
                0
            ],
            "type": "VEC3"
        },
        "accessor_160": {
            "bufferView": "bufferView_192",
            "byteOffset": 5064,
            "byteStride": 12,
            "componentType": 5126,
            "count": 6,
            "max": [
                0,
                0,
                1
            ],
            "min": [
                0,
                0,
                1
            ],
            "type": "VEC3"
        },
        "accessor_162": {
            "bufferView": "bufferView_192",
            "byteOffset": 5136,
            "byteStride": 8,
            "componentType": 5126,
            "count": 6,
            "max": [
                0.563731,
                0.492777
            ],
            "min": [
                0.47256,
                0.41984
            ],
            "type": "VEC2"
        },
        "accessor_183": {
            "bufferView": "bufferView_191",
            "byteOffset": 0,
            "byteStride": 0,
            "componentType": 5123,
            "count": 6,
            "type": "SCALAR"
        },
        "accessor_185": {
            "bufferView": "bufferView_192",
            "byteOffset": 0,
            "byteStride": 12,
            "componentType": 5126,
            "count": 6,
            "max": [
                0.5,
                0.4,
                0
            ],
            "min": [
                -0.5,
                -0.4,
                0
            ],
            "type": "VEC3"
        },
        "accessor_187": {
            "bufferView": "bufferView_192",
            "byteOffset": 72,
            "byteStride": 12,
            "componentType": 5126,
            "count": 6,
            "max": [
                0,
                0,
                1
            ],
            "min": [
                0,
                0,
                1
            ],
            "type": "VEC3"
        },
        "accessor_189": {
            "bufferView": "bufferView_192",
            "byteOffset": 144,
            "byteStride": 8,
            "componentType": 5126,
            "count": 6,
            "max": [
                0.787498,
                0.631813
            ],
            "min": [
                0.00579643,
                0.00645202
            ],
            "type": "VEC2"
        },
        "accessor_21": {
            "bufferView": "bufferView_191",
            "byteOffset": 12,
            "byteStride": 0,
            "componentType": 5123,
            "count": 30,
            "type": "SCALAR"
        },
        "accessor_23": {
            "bufferView": "bufferView_192",
            "byteOffset": 192,
            "byteStride": 12,
            "componentType": 5126,
            "count": 30,
            "max": [
                0.15,
                0.1,
                0.00999999
            ],
            "min": [
                -0.15,
                -0.1,
                0
            ],
            "type": "VEC3"
        },
        "accessor_25": {
            "bufferView": "bufferView_192",
            "byteOffset": 552,
            "byteStride": 12,
            "componentType": 5126,
            "count": 30,
            "max": [
                0.707107,
                0.707107,
                1
            ],
            "min": [
                -0.707107,
                -0.707107,
                0.707106
            ],
            "type": "VEC3"
        },
        "accessor_27": {
            "bufferView": "bufferView_192",
            "byteOffset": 912,
            "byteStride": 8,
            "componentType": 5126,
            "count": 30,
            "max": [
                0.237411,
                0.992118
            ],
            "min": [
                0.00749254,
                0.647241
            ],
            "type": "VEC2"
        },
        "accessor_48": {
            "bufferView": "bufferView_191",
            "byteOffset": 72,
            "byteStride": 0,
            "componentType": 5123,
            "count": 30,
            "type": "SCALAR"
        },
        "accessor_50": {
            "bufferView": "bufferView_192",
            "byteOffset": 1152,
            "byteStride": 12,
            "componentType": 5126,
            "count": 30,
            "max": [
                0.15,
                0.1,
                0.00999999
            ],
            "min": [
                -0.15,
                -0.1,
                0
            ],
            "type": "VEC3"
        },
        "accessor_52": {
            "bufferView": "bufferView_192",
            "byteOffset": 1512,
            "byteStride": 12,
            "componentType": 5126,
            "count": 30,
            "max": [
                0.707107,
                0.707107,
                1
            ],
            "min": [
                -0.707107,
                -0.707107,
                0.707106
            ],
            "type": "VEC3"
        },
        "accessor_54": {
            "bufferView": "bufferView_192",
            "byteOffset": 1872,
            "byteStride": 8,
            "componentType": 5126,
            "count": 30,
            "max": [
                0.485494,
                0.992895
            ],
            "min": [
                0.255576,
                0.648018
            ],
            "type": "VEC2"
        },
        "accessor_75": {
            "bufferView": "bufferView_191",
            "byteOffset": 132,
            "byteStride": 0,
            "componentType": 5123,
            "count": 30,
            "type": "SCALAR"
        },
        "accessor_77": {
            "bufferView": "bufferView_192",
            "byteOffset": 2112,
            "byteStride": 12,
            "componentType": 5126,
            "count": 30,
            "max": [
                0.15,
                0.1,
                0.00999999
            ],
            "min": [
                -0.15,
                -0.1,
                0
            ],
            "type": "VEC3"
        },
        "accessor_79": {
            "bufferView": "bufferView_192",
            "byteOffset": 2472,
            "byteStride": 12,
            "componentType": 5126,
            "count": 30,
            "max": [
                0.707107,
                0.707107,
                1
            ],
            "min": [
                -0.707107,
                -0.707107,
                0.707106
            ],
            "type": "VEC3"
        },
        "accessor_81": {
            "bufferView": "bufferView_192",
            "byteOffset": 2832,
            "byteStride": 8,
            "componentType": 5126,
            "count": 30,
            "max": [
                0.727355,
                0.992895
            ],
            "min": [
                0.497437,
                0.648018
            ],
            "type": "VEC2"
        }
    },
    "animations": {},
    "asset": {
        "generator": "collada2gltf@d78daf1e7950e6c22fe6bec1d07965e8a302e90d",
        "premultipliedAlpha": true,
        "profile": {
            "api": "WebGL",
            "version": "1.0.2"
        },
        "version": 1
    },
    "bufferViews": {
        "bufferView_191": {
            "buffer": "controlpanel",
            "byteLength": 324,
            "byteOffset": 0,
            "target": 34963
        },
        "bufferView_192": {
            "buffer": "controlpanel",
            "byteLength": 5184,
            "byteOffset": 324,
            "target": 34962
        }
    },
    "buffers": {
        "controlpanel": {
            "byteLength": 5508,
            "type": "arraybuffer",
            "uri": "controlpanel.bin"
        }
    },
    "materials": {
        "Surface-effect": {
            "name": "Surface",
            "technique": "technique0",
            "values": {
                "ambient": [
                    0,
                    0,
                    0,
                    1
                ],
                "diffuse": [
                    0.64,
                    0.64,
                    0.64,
                    1
                ],
                "emission": [
                    0,
                    0,
                    0,
                    1
                ],
                "shininess": 50,
                "specular": [
                    0.5,
                    0.5,
                    0.5,
                    1
                ]
            }
        }
    },
    "meshes": {
        "Plane-mesh": {
            "name": "Plane",
            "primitives": [
                {
                    "attributes": {
                        "NORMAL": "accessor_187",
                        "POSITION": "accessor_185",
                        "TEXCOORD_0": "accessor_189"
                    },
                    "indices": "accessor_183",
                    "material": "Surface-effect",
                    "mode": 4
                }
            ]
        },
        "Plane_005-mesh": {
            "name": "Plane.005",
            "primitives": [
                {
                    "attributes": {
                        "NORMAL": "accessor_25",
                        "POSITION": "accessor_23",
                        "TEXCOORD_0": "accessor_27"
                    },
                    "indices": "accessor_21",
                    "material": "Surface-effect",
                    "mode": 4
                }
            ]
        },
        "Plane_006-mesh": {
            "name": "Plane.006",
            "primitives": [
                {
                    "attributes": {
                        "NORMAL": "accessor_52",
                        "POSITION": "accessor_50",
                        "TEXCOORD_0": "accessor_54"
                    },
                    "indices": "accessor_48",
                    "material": "Surface-effect",
                    "mode": 4
                }
            ]
        },
        "Plane_007-mesh": {
            "name": "Plane.007",
            "primitives": [
                {
                    "attributes": {
                        "NORMAL": "accessor_79",
                        "POSITION": "accessor_77",
                        "TEXCOORD_0": "accessor_81"
                    },
                    "indices": "accessor_75",
                    "material": "Surface-effect",
                    "mode": 4
                }
            ]
        },
        "Plane_008-mesh": {
            "name": "Plane.008",
            "primitives": [
                {
                    "attributes": {
                        "NORMAL": "accessor_106",
                        "POSITION": "accessor_104",
                        "TEXCOORD_0": "accessor_108"
                    },
                    "indices": "accessor_102",
                    "material": "Surface-effect",
                    "mode": 4
                }
            ]
        },
        "Plane_009-mesh": {
            "name": "Plane.009",
            "primitives": [
                {
                    "attributes": {
                        "NORMAL": "accessor_133",
                        "POSITION": "accessor_131",
                        "TEXCOORD_0": "accessor_135"
                    },
                    "indices": "accessor_129",
                    "material": "Surface-effect",
                    "mode": 4
                }
            ]
        },
        "Plane_010-mesh": {
            "name": "Plane.010",
            "primitives": [
                {
                    "attributes": {
                        "NORMAL": "accessor_160",
                        "POSITION": "accessor_158",
                        "TEXCOORD_0": "accessor_162"
                    },
                    "indices": "accessor_156",
                    "material": "Surface-effect",
                    "mode": 4
                }
            ]
        }
    },
    "nodes": {
        "ControlPanel": {
            "children": [
                "Stage3",
                "Stage2",
                "Stage1",
                "MoveDown",
                "MoveUp",
                "PanelBack"
            ],
            "matrix": [
                1,
                0,
                0,
                0,
                0,
                0.837591,
                0.546298,
                0,
                0,
                -0.546298,
                0.837591,
                0,
                0,
                0,
                0,
                1
            ],
            "meshes": [
                "Plane-mesh"
            ],
            "name": "ControlPanel"
        },
        "MoveDown": {
            "children": [],
            "matrix": [
                1,
                0,
                0,
                0,
                0,
                1,
                0,
                0,
                0,
                2.98023e-08,
                1,
                0,
                0.35,
                -0.2,
                0,
                1
            ],
            "meshes": [
                "Plane_008-mesh"
            ],
            "name": "MoveDown"
        },
        "MoveUp": {
            "children": [],
            "matrix": [
                1,
                0,
                0,
                0,
                0,
                1,
                0,
                0,
                0,
                2.98023e-08,
                1,
                0,
                0.35,
                0.2,
                0,
                1
            ],
            "meshes": [
                "Plane_009-mesh"
            ],
            "name": "MoveUp"
        },
        "PanelBack": {
            "children": [],
            "matrix": [
                -1,
                3.55271e-15,
                8.74228e-08,
                0,
                0,
                1,
                0,
                0,
                -8.74228e-08,
                -2.98023e-08,
                -1,
                0,
                0,
                -2.91038e-11,
                -0.001,
                1
            ],
            "meshes": [
                "Plane_010-mesh"
            ],
            "name": "PanelBack"
        },
        "Stage1": {
            "children": [],
            "matrix": [
                1,
                0,
                0,
                0,
                0,
                1,
                0,
                0,
                0,
                2.98023e-08,
                1,
                0,
                -0.3,
                -0.25,
                0,
                1
            ],
            "meshes": [
                "Plane_007-mesh"
            ],
            "name": "Stage1"
        },
        "Stage2": {
            "children": [],
            "matrix": [
                1,
                0,
                0,
                0,
                0,
                1,
                0,
                0,
                0,
                2.98023e-08,
                1,
                0,
                -0.3,
                0,
                0,
                1
            ],
            "meshes": [
                "Plane_006-mesh"
            ],
            "name": "Stage2"
        },
        "Stage3": {
            "children": [],
            "matrix": [
                1,
                0,
                0,
                0,
                0,
                1,
                0,
                0,
                0,
                2.98023e-08,
                1,
                0,
                -0.3,
                0.25,
                0,
                1
            ],
            "meshes": [
                "Plane_005-mesh"
            ],
            "name": "Stage3"
        },
        "node_7": {
            "children": [
                "ControlPanel"
            ],
            "matrix": [
                1,
                0,
                0,
                0,
                0,
                0,
                -1,
                0,
                0,
                1,
                0,
                0,
                0,
                0,
                0,
                1
            ],
            "name": "Y_UP_Transform"
        }
    },
    "programs": {
        "program_0": {
            "attributes": [
                "a_normal",
                "a_position"
            ],
            "fragmentShader": "controlpanel0FS",
            "vertexShader": "controlpanel0VS"
        }
    },
    "scene": "defaultScene",
    "scenes": {
        "defaultScene": {
            "nodes": [
                "node_7"
            ]
        }
    },
    "shaders": {
        "controlpanel0FS": {
            "type": 35632,
            "uri": "controlpanel0FS.glsl"
        },
        "controlpanel0VS": {
            "type": 35633,
            "uri": "controlpanel0VS.glsl"
        }
    },
    "skins": {},
    "techniques": {
        "technique0": {
            "attributes": {
                "a_normal": "normal",
                "a_position": "position"
            },
            "parameters": {
                "ambient": {
                    "type": 35666
                },
                "diffuse": {
                    "type": 35666
                },
                "emission": {
                    "type": 35666
                },
                "modelViewMatrix": {
                    "semantic": "MODELVIEW",
                    "type": 35676
                },
                "normal": {
                    "semantic": "NORMAL",
                    "type": 35665
                },
                "normalMatrix": {
                    "semantic": "MODELVIEWINVERSETRANSPOSE",
                    "type": 35675
                },
                "position": {
                    "semantic": "POSITION",
                    "type": 35665
                },
                "projectionMatrix": {
                    "semantic": "PROJECTION",
                    "type": 35676
                },
                "shininess": {
                    "type": 5126
                },
                "specular": {
                    "type": 35666
                }
            },
            "program": "program_0",
            "states": {
                "enable": [
                    2929,
                    2884
                ]
            },
            "uniforms": {
                "u_ambient": "ambient",
                "u_diffuse": "diffuse",
                "u_emission": "emission",
                "u_modelViewMatrix": "modelViewMatrix",
                "u_normalMatrix": "normalMatrix",
                "u_projectionMatrix": "projectionMatrix",
                "u_shininess": "shininess",
                "u_specular": "specular"
            }
        }
    }
}